<?xml version="1.0" encoding="UTF-8"?>
<svg width="146px" height="110px" viewBox="0 0 146 110" version="1.1" xmlns="http://www.w3.org/2000/svg">
	<style type="text/css">
		.st0{fill:#42515A;}
		.st1{fill:#42515A;}
	</style>
	<path class="st0" d="M46.8427273,101.749091 C47.4045455,101.749091 47.9254545,101.842727 48.4036364,102.03 C48.8827273,102.217273 49.2954545,102.479091 49.6427273,102.815455 C49.9890909,103.152727 50.2618182,103.558182 50.4590909,104.033636 C50.6572727,104.509091 50.7554545,105.034545 50.7554545,105.61 C50.7554545,106.179091 50.6572727,106.700909 50.4590909,107.176364 C50.2618182,107.651818 49.9890909,108.061818 49.6427273,108.404545 C49.2954545,108.748182 48.8827273,109.015455 48.4036364,109.206364 C47.9254545,109.397273 47.4045455,109.492727 46.8427273,109.492727 C46.2809091,109.492727 45.7618182,109.397273 45.2863636,109.206364 C44.8109091,109.015455 44.4,108.748182 44.0536364,108.404545 C43.7063636,108.061818 43.4354545,107.651818 43.2418182,107.176364 C43.0472727,106.700909 42.95,106.179091 42.95,105.61 C42.95,105.034545 43.0472727,104.509091 43.2418182,104.033636 C43.4354545,103.558182 43.7063636,103.152727 44.0536364,102.815455 C44.4,102.479091 44.8109091,102.217273 45.2863636,102.03 C45.7618182,101.842727 46.2809091,101.749091 46.8427273,101.749091 Z M106.479091,101.749091 C106.909091,101.749091 107.311818,101.825455 107.686364,101.978182 C108.060909,102.130909 108.362727,102.335455 108.591818,102.591818 L107.863636,103.3 C107.718182,103.098182 107.52,102.933636 107.27,102.805455 C107.020909,102.677273 106.739091,102.612727 106.427273,102.612727 C106.260909,102.612727 106.091818,102.635455 105.922727,102.680909 C105.752727,102.725455 105.598182,102.798182 105.459091,102.899091 C105.320909,103 105.207273,103.124545 105.120909,103.273636 C105.034545,103.422727 104.990909,103.601818 104.990909,103.81 C104.990909,104.010909 105.030909,104.179091 105.110909,104.314545 C105.19,104.45 105.298182,104.564545 105.432727,104.658182 C105.568182,104.751818 105.728182,104.831818 105.911818,104.897273 C106.095455,104.963636 106.291818,105.030909 106.5,105.1 C106.75,105.176364 107.002727,105.263636 107.26,105.360909 C107.516364,105.457273 107.749091,105.586364 107.957273,105.745455 C108.165455,105.905455 108.335455,106.104545 108.467273,106.344545 C108.599091,106.583636 108.664545,106.887273 108.664545,107.254545 C108.664545,107.636364 108.593636,107.967273 108.451818,108.249091 C108.309091,108.53 108.12,108.761818 107.884545,108.946364 C107.648182,109.13 107.375455,109.267273 107.067273,109.357273 C106.758182,109.447273 106.440909,109.492727 106.114545,109.492727 C105.65,109.492727 105.200909,109.401818 104.767273,109.221818 C104.333636,109.041818 103.974545,108.774545 103.69,108.42 L104.490909,107.743636 C104.664545,108.000909 104.897273,108.209091 105.188182,108.368182 C105.48,108.528182 105.795455,108.608182 106.135455,108.608182 C106.309091,108.608182 106.482727,108.583636 106.656364,108.534545 C106.829091,108.486364 106.987273,108.41 107.13,108.306364 C107.271818,108.201818 107.388182,108.071818 107.478182,107.915455 C107.568182,107.759091 107.613636,107.570909 107.613636,107.348182 C107.613636,107.126364 107.566364,106.940909 107.472727,106.791818 C107.379091,106.642727 107.252727,106.515455 107.092727,106.411818 C106.933636,106.307273 106.748182,106.219091 106.536364,106.146364 C106.324545,106.073636 106.100909,105.999091 105.864545,105.922727 C105.629091,105.853636 105.396364,105.768182 105.167273,105.667273 C104.939091,105.567273 104.734545,105.439091 104.553636,105.282727 C104.373636,105.126364 104.227273,104.933636 104.116364,104.704545 C104.005455,104.476364 103.95,104.190909 103.95,103.851818 C103.95,103.483636 104.024545,103.168182 104.173636,102.904545 C104.322727,102.640909 104.517273,102.421818 104.756364,102.248182 C104.996364,102.075455 105.266364,101.948182 105.568182,101.869091 C105.87,101.789091 106.173636,101.749091 106.479091,101.749091 Z M68.8136364,101.936364 L68.8136364,106.515455 C68.8136364,106.765455 68.8445455,107.013636 68.9072727,107.26 C68.9690909,107.506364 69.0718182,107.726364 69.2136364,107.920909 C69.3563636,108.115455 69.5436364,108.270909 69.7763636,108.389091 C70.0081818,108.507273 70.2981818,108.566364 70.6454545,108.566364 C70.9845455,108.566364 71.2727273,108.507273 71.5090909,108.389091 C71.7445455,108.270909 71.9336364,108.115455 72.0763636,107.920909 C72.2181818,107.726364 72.3209091,107.506364 72.3827273,107.26 C72.4454545,107.013636 72.4763636,106.765455 72.4763636,106.515455 L72.4763636,101.936364 L73.5072727,101.936364 L73.5072727,106.578182 C73.5072727,106.952727 73.45,107.315455 73.3354545,107.665455 C73.2209091,108.016364 73.0454545,108.327273 72.81,108.597273 C72.5736364,108.868182 72.2754545,109.084545 71.9145455,109.248182 C71.5536364,109.410909 71.1309091,109.492727 70.6454545,109.492727 C70.1590909,109.492727 69.7363636,109.410909 69.3754545,109.248182 C69.0145455,109.084545 68.7163636,108.868182 68.48,108.597273 C68.2445455,108.327273 68.0690909,108.016364 67.9545455,107.665455 C67.84,107.315455 67.7827273,106.952727 67.7827273,106.578182 L67.7827273,101.936364 L68.8136364,101.936364 Z M100.557273,101.749091 C100.987273,101.749091 101.39,101.825455 101.764545,101.978182 C102.139091,102.130909 102.440909,102.335455 102.67,102.591818 L101.940909,103.3 C101.795455,103.098182 101.598182,102.933636 101.348182,102.805455 C101.098182,102.677273 100.817273,102.612727 100.504545,102.612727 C100.338182,102.612727 100.17,102.635455 100,102.680909 C99.83,102.725455 99.6763636,102.798182 99.5372727,102.899091 C99.3981818,103 99.2854545,103.124545 99.1990909,103.273636 C99.1118182,103.422727 99.0690909,103.601818 99.0690909,103.81 C99.0690909,104.010909 99.1090909,104.179091 99.1881818,104.314545 C99.2681818,104.45 99.3754545,104.564545 99.5109091,104.658182 C99.6463636,104.751818 99.8063636,104.831818 99.99,104.897273 C100.173636,104.963636 100.37,105.030909 100.578182,105.1 C100.827273,105.176364 101.080909,105.263636 101.337273,105.360909 C101.594545,105.457273 101.827273,105.586364 102.034545,105.745455 C102.242727,105.905455 102.412727,106.104545 102.544545,106.344545 C102.676364,106.583636 102.742727,106.887273 102.742727,107.254545 C102.742727,107.636364 102.671818,107.967273 102.529091,108.249091 C102.387273,108.53 102.198182,108.761818 101.961818,108.946364 C101.726364,109.13 101.453636,109.267273 101.145455,109.357273 C100.836364,109.447273 100.519091,109.492727 100.192727,109.492727 C99.7281818,109.492727 99.2781818,109.401818 98.8454545,109.221818 C98.4118182,109.041818 98.0518182,108.774545 97.7672727,108.42 L98.5690909,107.743636 C98.7427273,108.000909 98.9745455,108.209091 99.2663636,108.368182 C99.5581818,108.528182 99.8736364,108.608182 100.213636,108.608182 C100.387273,108.608182 100.560909,108.583636 100.733636,108.534545 C100.907273,108.486364 101.065455,108.41 101.207273,108.306364 C101.35,108.201818 101.466364,108.071818 101.556364,107.915455 C101.646364,107.759091 101.691818,107.570909 101.691818,107.348182 C101.691818,107.126364 101.644545,106.940909 101.550909,106.791818 C101.457273,106.642727 101.330909,106.515455 101.170909,106.411818 C101.011818,106.307273 100.826364,106.219091 100.614545,106.146364 C100.402727,106.073636 100.179091,105.999091 99.9427273,105.922727 C99.7072727,105.853636 99.4745455,105.768182 99.2454545,105.667273 C99.0163636,105.567273 98.8118182,105.439091 98.6318182,105.282727 C98.4509091,105.126364 98.3054545,104.933636 98.1945455,104.704545 C98.0836364,104.476364 98.0281818,104.190909 98.0281818,103.851818 C98.0281818,103.483636 98.1027273,103.168182 98.2518182,102.904545 C98.4009091,102.640909 98.5954545,102.421818 98.8345455,102.248182 C99.0736364,102.075455 99.3445455,101.948182 99.6463636,101.869091 C99.9481818,101.789091 100.251818,101.749091 100.557273,101.749091 Z M77.5245455,101.749091 C77.9545455,101.749091 78.3572727,101.825455 78.7318182,101.978182 C79.1063636,102.130909 79.4081818,102.335455 79.6372727,102.591818 L78.9090909,103.3 C78.7636364,103.098182 78.5654545,102.933636 78.3154545,102.805455 C78.0654545,102.677273 77.7845455,102.612727 77.4727273,102.612727 C77.3063636,102.612727 77.1372727,102.635455 76.9681818,102.680909 C76.7981818,102.725455 76.6436364,102.798182 76.5045455,102.899091 C76.3654545,103 76.2527273,103.124545 76.1663636,103.273636 C76.08,103.422727 76.0363636,103.601818 76.0363636,103.81 C76.0363636,104.010909 76.0763636,104.179091 76.1554545,104.314545 C76.2354545,104.45 76.3427273,104.564545 76.4781818,104.658182 C76.6136364,104.751818 76.7736364,104.831818 76.9572727,104.897273 C77.1409091,104.963636 77.3372727,105.030909 77.5454545,105.1 C77.7954545,105.176364 78.0481818,105.263636 78.3054545,105.360909 C78.5618182,105.457273 78.7945455,105.586364 79.0027273,105.745455 C79.2109091,105.905455 79.3809091,106.104545 79.5127273,106.344545 C79.6445455,106.583636 79.71,106.887273 79.71,107.254545 C79.71,107.636364 79.6390909,107.967273 79.4972727,108.249091 C79.3545455,108.53 79.1654545,108.761818 78.93,108.946364 C78.6936364,109.13 78.4209091,109.267273 78.1127273,109.357273 C77.8036364,109.447273 77.4863636,109.492727 77.16,109.492727 C76.6954545,109.492727 76.2463636,109.401818 75.8127273,109.221818 C75.3790909,109.041818 75.02,108.774545 74.7354545,108.42 L75.5363636,107.743636 C75.71,108.000909 75.9427273,108.209091 76.2336364,108.368182 C76.5254545,108.528182 76.8409091,108.608182 77.1809091,108.608182 C77.3545455,108.608182 77.5281818,108.583636 77.7018182,108.534545 C77.8745455,108.486364 78.0327273,108.41 78.1754545,108.306364 C78.3172727,108.201818 78.4336364,108.071818 78.5236364,107.915455 C78.6136364,107.759091 78.6590909,107.570909 78.6590909,107.348182 C78.6590909,107.126364 78.6118182,106.940909 78.5181818,106.791818 C78.4245455,106.642727 78.2981818,106.515455 78.1381818,106.411818 C77.9790909,106.307273 77.7936364,106.219091 77.5818182,106.146364 C77.37,106.073636 77.1463636,105.999091 76.91,105.922727 C76.6745455,105.853636 76.4418182,105.768182 76.2127273,105.667273 C75.9845455,105.567273 75.78,105.439091 75.5990909,105.282727 C75.4190909,105.126364 75.2727273,104.933636 75.1618182,104.704545 C75.0509091,104.476364 74.9954545,104.190909 74.9954545,103.851818 C74.9954545,103.483636 75.07,103.168182 75.2190909,102.904545 C75.3681818,102.640909 75.5627273,102.421818 75.8018182,102.248182 C76.0418182,102.075455 76.3118182,101.948182 76.6136364,101.869091 C76.9154545,101.789091 77.2190909,101.749091 77.5245455,101.749091 Z M96.7481818,101.936364 L96.7481818,102.841818 L93.0527273,102.841818 L93.0527273,105.048182 L96.5290909,105.048182 L96.5290909,105.932727 L93.0527273,105.932727 L93.0527273,108.389091 L96.9036364,108.389091 L96.9036364,109.305455 L92.0227273,109.305455 L92.0227273,101.936364 L96.7481818,101.936364 Z M63.6927273,101.936364 C63.97,101.936364 64.2481818,101.967273 64.5254545,102.03 C64.8027273,102.092727 65.0509091,102.196364 65.2690909,102.341818 C65.4881818,102.488182 65.6654545,102.679091 65.8,102.914545 C65.9354545,103.150909 66.0027273,103.445455 66.0027273,103.799091 C66.0027273,104.208182 65.8854545,104.551818 65.6490909,104.83 C65.4136364,105.107273 65.1009091,105.298182 64.7127273,105.401818 L64.7127273,105.422727 C64.9490909,105.450909 65.1672727,105.511818 65.3681818,105.605455 C65.5690909,105.699091 65.7427273,105.821818 65.8890909,105.974545 C66.0345455,106.127273 66.1472727,106.307273 66.2272727,106.515455 C66.3063636,106.723636 66.3463636,106.956364 66.3463636,107.212727 C66.3463636,107.567273 66.2736364,107.875455 66.1281818,108.139091 C65.9827273,108.402727 65.7845455,108.62 65.5345455,108.79 C65.2845455,108.96 64.9918182,109.088182 64.6554545,109.174545 C64.3190909,109.261818 63.96,109.305455 63.5781818,109.305455 L61.1527273,109.305455 L61.1527273,101.936364 L63.6927273,101.936364 Z M82.1981818,101.936364 L82.1981818,109.305455 L81.1672727,109.305455 L81.1672727,101.936364 L82.1981818,101.936364 Z M42.0136364,101.936364 L42.0136364,102.841818 L38.4436364,102.841818 L38.4436364,105.131818 L41.7845455,105.131818 L41.7845455,106.016364 L38.4436364,106.016364 L38.4436364,109.305455 L37.4136364,109.305455 L37.4136364,101.936364 L42.0136364,101.936364 Z M85.33,101.936364 L89.1809091,107.827273 L89.2018182,107.827273 L89.2018182,101.936364 L90.2327273,101.936364 L90.2327273,109.305455 L88.9318182,109.305455 L85.0390909,103.289091 L85.0181818,103.289091 L85.0181818,109.305455 L83.9872727,109.305455 L83.9872727,101.936364 L85.33,101.936364 Z M54.5236364,101.936364 C54.8772727,101.936364 55.2136364,101.972727 55.5327273,102.045455 C55.8527273,102.118182 56.1318182,102.234545 56.3709091,102.394545 C56.61,102.553636 56.7990909,102.763636 56.9381818,103.023636 C57.0772727,103.284545 57.1463636,103.601818 57.1463636,103.976364 C57.1463636,104.517273 56.98,104.954545 56.6463636,105.287273 C56.3136364,105.620909 55.8836364,105.832727 55.3563636,105.922727 L57.4163636,109.305455 L56.1681818,109.305455 L54.2945455,106.026364 L53.1909091,106.026364 L53.1909091,109.305455 L52.1609091,109.305455 L52.1609091,101.936364 L54.5236364,101.936364 Z M46.8427273,102.654545 C46.4190909,102.654545 46.0363636,102.732727 45.6927273,102.889091 C45.3490909,103.044545 45.0572727,103.258182 44.8181818,103.529091 C44.5790909,103.799091 44.3936364,104.113636 44.2618182,104.470909 C44.13,104.828182 44.0636364,105.208182 44.0636364,105.61 C44.0636364,106.02 44.13,106.404545 44.2618182,106.765455 C44.3936364,107.126364 44.5809091,107.44 44.8236364,107.707273 C45.0663636,107.974545 45.3572727,108.184545 45.6981818,108.337273 C46.0372727,108.49 46.4190909,108.566364 46.8427273,108.566364 C47.2654545,108.566364 47.6509091,108.49 47.9981818,108.337273 C48.3445455,108.184545 48.64,107.974545 48.8827273,107.707273 C49.1254545,107.44 49.3127273,107.126364 49.4445455,106.765455 C49.5763636,106.404545 49.6427273,106.02 49.6427273,105.61 C49.6427273,105.208182 49.5763636,104.828182 49.4445455,104.470909 C49.3127273,104.113636 49.1254545,103.799091 48.8827273,103.529091 C48.64,103.258182 48.3463636,103.044545 48.0027273,102.889091 C47.66,102.732727 47.2727273,102.654545 46.8427273,102.654545 Z M63.5672727,105.922727 L62.1836364,105.922727 L62.1836364,108.430909 L63.4745455,108.430909 C63.6890909,108.430909 63.9063636,108.411818 64.1245455,108.373636 C64.3427273,108.335455 64.5409091,108.268182 64.7181818,108.170909 C64.8945455,108.073636 65.0372727,107.943636 65.1445455,107.78 C65.2518182,107.617273 65.3054545,107.410909 65.3054545,107.160909 C65.3054545,106.723636 65.1563636,106.408182 64.8581818,106.213636 C64.56,106.02 64.13,105.922727 63.5672727,105.922727 Z M54.4509091,102.810909 L53.1909091,102.810909 L53.1909091,105.162727 L54.3781818,105.162727 C54.6209091,105.162727 54.8463636,105.141818 55.0545455,105.1 C55.2627273,105.059091 55.4445455,104.990909 55.6009091,104.897273 C55.7563636,104.803636 55.88,104.682727 55.97,104.532727 C56.06,104.383636 56.1054545,104.198182 56.1054545,103.976364 C56.1054545,103.754545 56.06,103.568182 55.97,103.42 C55.88,103.27 55.76,103.150909 55.6109091,103.06 C55.4618182,102.97 55.2863636,102.906364 55.0854545,102.868182 C54.8845455,102.83 54.6727273,102.810909 54.4509091,102.810909 Z M63.36,102.8 L62.1836364,102.8 L62.1836364,105.048182 L63.5263636,105.048182 C63.7209091,105.048182 63.9063636,105.025455 64.0827273,104.980909 C64.26,104.935455 64.4145455,104.866364 64.5463636,104.772727 C64.6781818,104.679091 64.7818182,104.560909 64.8581818,104.419091 C64.9345455,104.276364 64.9727273,104.104545 64.9727273,103.903636 C64.9727273,103.508182 64.8272727,103.225455 64.5354545,103.055455 C64.2445455,102.885455 63.8518182,102.8 63.36,102.8 Z M139.596364,76.2027273 C140.907273,76.2027273 142.026364,76.4345455 142.954545,76.8990909 C143.439091,77.1409091 143.860909,77.4063636 144.220909,77.6945455 C144.708182,78.0863636 144.715455,78.8263636 144.229091,79.22 C143.852727,79.5236364 143.303636,79.5127273 142.955455,79.1763636 C142.644545,78.8754545 142.289091,78.6172727 141.89,78.4009091 C141.234545,78.0454545 140.442727,77.8681818 139.514545,77.8681818 C139.040909,77.8681818 138.559091,77.9409091 138.067273,78.0872727 C137.575455,78.2327273 137.129091,78.4554545 136.729091,78.7554545 C136.328182,79.0563636 136.005455,79.4345455 135.76,79.8890909 C135.513636,80.3436364 135.390909,80.8818182 135.390909,81.5 C135.390909,82.1190909 135.509091,82.6290909 135.744545,83.0290909 C135.980909,83.43 136.293636,83.7709091 136.684545,84.0536364 C137.074545,84.3354545 137.52,84.5672727 138.019091,84.7490909 C138.518182,84.9318182 139.04,85.1136364 139.584545,85.2954545 C140.256364,85.5145455 140.931818,85.7509091 141.613636,86.0054545 C142.293636,86.2609091 142.906364,86.5927273 143.450909,87.0018182 C143.995455,87.4118182 144.440909,87.9309091 144.785455,88.5581818 C145.130909,89.1863636 145.302727,89.9836364 145.302727,90.9472727 C145.302727,91.9127273 145.119091,92.7463636 144.750909,93.4463636 C144.382727,94.1472727 143.904545,94.7254545 143.317273,95.18 C142.73,95.6354545 142.058182,95.9718182 141.302727,96.1909091 C140.547273,96.4090909 139.787273,96.5190909 139.022727,96.5190909 C138.44,96.5190909 137.858182,96.4590909 137.275455,96.3409091 C136.692727,96.2218182 136.137273,96.0445455 135.609091,95.8081818 C135.081818,95.5718182 134.59,95.2718182 134.135455,94.9072727 C133.980909,94.7836364 133.832727,94.6536364 133.690909,94.5181818 C133.252727,94.0981818 133.290909,93.3863636 133.778182,93.0245455 L133.846364,92.9736364 C134.248182,92.6754545 134.814545,92.7263636 135.146364,93.1009091 C135.491818,93.49 135.905455,93.8327273 136.388182,94.1290909 C137.143636,94.5936364 138.030909,94.8254545 139.05,94.8254545 C139.541818,94.8254545 140.042727,94.7481818 140.551818,94.5936364 C141.060909,94.4390909 141.520909,94.2018182 141.930909,93.8827273 C142.34,93.5654545 142.677273,93.1727273 142.940909,92.7090909 C143.205455,92.2445455 143.337273,91.7036364 143.337273,91.0845455 C143.337273,90.4118182 143.205455,89.8518182 142.940909,89.4054545 C142.677273,88.9590909 142.327273,88.5863636 141.89,88.2854545 C141.453636,87.9854545 140.951818,87.7354545 140.388182,87.5345455 C139.823636,87.3345455 139.231818,87.1345455 138.612727,86.9336364 C137.975455,86.7336364 137.347273,86.5063636 136.729091,86.2509091 C136.11,85.9963636 135.555455,85.6636364 135.063636,85.2545455 C134.571818,84.8454545 134.175455,84.34 133.875455,83.7390909 C133.575455,83.1390909 133.425455,82.4009091 133.425455,81.5272727 C133.425455,80.5990909 133.611818,79.7981818 133.984545,79.1245455 C134.357273,78.4509091 134.845455,77.8963636 135.445455,77.4590909 C136.046364,77.0218182 136.710909,76.7036364 137.439091,76.5027273 C138.166364,76.3027273 138.886364,76.2027273 139.596364,76.2027273 Z M122.467273,76.2027273 C124.013636,76.2027273 125.361818,76.4336364 126.508182,76.8963636 C127.333636,77.2290909 128.074545,77.6554545 128.73,78.1745455 C129.139091,78.4990909 129.171818,79.1090909 128.802727,79.4781818 L128.689091,79.5927273 C128.369091,79.9118182 127.859091,79.9345455 127.512727,79.6436364 C126.971818,79.1909091 126.364545,78.8218182 125.689091,78.5372727 C124.760909,78.1454545 123.695455,77.95 122.494545,77.95 C121.256364,77.95 120.140909,78.1772727 119.149091,78.6318182 C118.157273,79.0863636 117.315455,79.7 116.623636,80.4718182 C115.931818,81.2445455 115.399091,82.1390909 115.026364,83.1572727 C114.652727,84.1754545 114.466364,85.2472727 114.466364,86.3745455 C114.466364,87.5018182 114.652727,88.5736364 115.026364,89.5909091 C115.399091,90.6090909 115.931818,91.5 116.623636,92.2627273 C117.315455,93.0263636 118.157273,93.6345455 119.149091,94.09 C120.140909,94.5436364 121.256364,94.7709091 122.494545,94.7709091 C123.587273,94.7709091 124.587273,94.6527273 125.498182,94.4163636 C126.163636,94.2436364 126.736364,94.0363636 127.217273,93.7945455 C127.516364,93.6445455 127.71,93.3427273 127.71,93.0072727 L127.71,87.6445455 L123.885455,87.6445455 C123.402727,87.6445455 123.011818,87.2527273 123.011818,86.77 C123.011818,86.2872727 123.402727,85.8963636 123.885455,85.8963636 L128.801818,85.8963636 C129.284545,85.8963636 129.676364,86.2872727 129.676364,86.77 L129.676364,94.1236364 C129.676364,94.4472727 129.496364,94.7409091 129.212727,94.8963636 C128.289091,95.4018182 127.305455,95.7872727 126.262727,96.0527273 C125.042727,96.3627273 123.778182,96.5190909 122.467273,96.5190909 C121.010909,96.5190909 119.663636,96.2627273 118.425455,95.7536364 C117.187273,95.2445455 116.122727,94.5381818 115.230909,93.6372727 C114.339091,92.7363636 113.642727,91.6672727 113.142727,90.4290909 C112.640909,89.1909091 112.390909,87.8354545 112.390909,86.36 C112.390909,84.8854545 112.646364,83.53 113.156364,82.2918182 C113.665455,81.0545455 114.370909,79.9845455 115.271818,79.0836364 C116.172727,78.1818182 117.238182,77.4772727 118.467273,76.9672727 C119.695455,76.4581818 121.029091,76.2027273 122.467273,76.2027273 Z M26.9118182,76.6945455 L26.9118182,96.0272727 L22.3890909,96.0272727 L22.3890909,76.6945455 L26.9118182,76.6945455 Z M94.4963636,76.6945455 C95.0390909,76.6945455 95.5472727,76.9627273 95.8536364,77.41 L106.613636,93.1590909 L106.668182,93.1590909 L106.668182,77.6772727 C106.668182,77.1345455 107.108182,76.6945455 107.651818,76.6945455 C108.194545,76.6945455 108.634545,77.1345455 108.634545,77.6772727 L108.634545,95.0436364 C108.634545,95.5863636 108.194545,96.0263636 107.651818,96.0263636 L107.049091,96.0263636 C106.503636,96.0263636 105.993636,95.7563636 105.688182,95.3045455 L94.9263636,79.3972727 L94.8718182,79.3972727 L94.8718182,95.0436364 C94.8718182,95.5863636 94.4318182,96.0263636 93.8890909,96.0263636 C93.3463636,96.0263636 92.9063636,95.5863636 92.9063636,95.0436364 L92.9063636,77.6772727 C92.9063636,77.1345455 93.3463636,76.6945455 93.8890909,76.6945455 L94.4963636,76.6945455 Z M86.72,76.6945455 C87.2627273,76.6945455 87.7027273,77.1345455 87.7027273,77.6772727 L87.7027273,95.0436364 C87.7027273,95.5475974 87.3233395,95.9629824 86.8346034,96.0197519 L86.72,96.0263636 C86.1772727,96.0263636 85.7372727,95.5863636 85.7372727,95.0436364 L85.7372727,77.6772727 C85.7372727,77.1345455 86.1772727,76.6945455 86.72,76.6945455 Z M79.5509091,76.6945455 C80.0936364,76.6945455 80.5336364,77.1345455 80.5336364,77.6772727 L80.5336364,95.0436364 C80.5336364,95.5863636 80.0936364,96.0263636 79.5509091,96.0263636 C79.0081818,96.0263636 78.5681818,95.5863636 78.5681818,95.0436364 L78.5681818,86.8790909 L68.0272727,86.8790909 L68.0272727,95.0436364 C68.0272727,95.5863636 67.5881818,96.0263636 67.0445455,96.0263636 C66.5018182,96.0263636 66.0618182,95.5863636 66.0618182,95.0436364 L66.0618182,77.6772727 C66.0618182,77.1733117 66.4412059,76.7579267 66.929942,76.7011572 L67.0445455,76.6945455 C67.5881818,76.6945455 68.0272727,77.1345455 68.0272727,77.6772727 L68.0272727,85.0772727 L78.5681818,85.0772727 L78.5681818,77.6772727 C78.5681818,77.1345455 79.0081818,76.6945455 79.5509091,76.6945455 Z M62.3027273,76.6945455 C62.7854545,76.6945455 63.1763636,77.0854545 63.1763636,77.5681818 C63.1763636,78.0509091 62.7854545,78.4418182 62.3027273,78.4418182 L56.6263636,78.4418182 L56.6263636,95.1536364 C56.6263636,95.6354545 56.2345455,96.0263636 55.7527273,96.0263636 L55.5336364,96.0263636 C55.0509091,96.0263636 54.66,95.6354545 54.66,95.1536364 L54.66,78.4418182 L49.0627273,78.4418182 C48.58,78.4418182 48.1881818,78.0509091 48.1881818,77.5681818 C48.1881818,77.0854545 48.58,76.6945455 49.0627273,76.6945455 L62.3027273,76.6945455 Z M40.6845455,76.6945455 C42.2572727,76.6945455 44.2090909,77.7963636 44.9981818,79.1554545 C47.1336364,82.8372727 45.4309091,86.5890909 42.4218182,87.8818182 L42.4218182,87.8818182 L46.8318182,96.0263636 L43.0281818,96.0263636 C42.1654545,96.0263636 41.3718182,95.5536364 40.9618182,94.7936364 L40.9618182,94.7936364 L37.4872727,88.3536364 L35.9018182,88.3536364 L35.9018182,96.0263636 L31.3418182,96.0263636 L31.3418182,76.6945455 Z M10.1772727,76.6945455 C11.5045455,76.6945455 12.7018182,77.4945455 13.2081818,78.7218182 L13.2081818,78.7218182 L20.3545455,96.0263636 L15.8972727,96.0263636 L14.2881818,91.9645455 L6.26,91.9645455 L4.68181818,96.0263636 L-9.67307043e-14,96.0263636 L7.14545455,78.7218182 C7.65272727,77.4945455 8.84909091,76.6945455 10.1772727,76.6945455 Z M10.2345455,81.7336364 L7.66272727,88.3536364 L12.8572727,88.3536364 L10.2345455,81.7336364 Z M39.0218182,79.9645455 L35.8636364,79.9645455 L35.8636364,84.7427273 L39.5327273,84.7427273 C39.9736364,84.7427273 40.4018182,84.5590909 40.6818182,84.2181818 C42.3263636,82.2181818 40.9372727,79.9645455 39.0218182,79.9645455 L39.0218182,79.9645455 Z M72.7709091,-1.42108547e-14 C80.8654545,0.0309090909 88.4718182,3.19727273 94.2,8.92545455 C99.9554545,14.6809091 103.125455,22.3336364 103.125455,30.4736364 C103.125455,38.6127273 99.9554545,46.2663636 94.2,52.0218182 C88.4436364,57.7772727 80.7909091,60.9472727 72.6518182,60.9472727 C64.5118182,60.9472727 56.8590909,57.7772727 51.1027273,52.0218182 C45.3472727,46.2663636 42.1772727,38.6127273 42.1772727,30.4736364 C42.1772727,22.3336364 45.3472727,14.6809091 51.1027273,8.92545455 C56.8309091,3.19727273 64.4372727,0.0309090909 72.5318182,-1.42108547e-14 L72.5318182,-1.42108547e-14 Z M72.6518182,5.07818182 C58.6263636,5.07818182 47.2563636,16.4481818 47.2563636,30.4736364 C47.2563636,37.4027273 50.0327273,43.6827273 54.5327273,48.2645455 L54.5327273,48.2645455 L66.1063636,21.0027273 C67.3327273,18.1154545 69.9918182,16.6718182 72.6518182,16.6718182 C75.3109091,16.6718182 77.9709091,18.1154545 79.1963636,21.0027273 L79.1963636,21.0027273 L90.77,48.2645455 C95.27,43.6827273 98.0463636,37.4027273 98.0463636,30.4736364 C98.0463636,16.4481818 86.6763636,5.07818182 72.6518182,5.07818182 Z M72.6518182,21.75 C72.1490909,21.75 71.2381818,21.9109091 70.7809091,22.9881818 L70.7809091,22.9881818 L63.8981818,39.2 L81.4045455,39.2 L74.5218182,22.9881818 C74.0645455,21.9109091 73.1536364,21.75 72.6518182,21.75 Z"/>
</svg>
