<?xml version="1.0" encoding="utf-8"?>
<!-- Generator: Adobe Illustrator 23.0.6, SVG Export Plug-In . SVG Version: 6.00 Build 0)  -->
<svg version="1.1" id="AIRTHINGS" xmlns="http://www.w3.org/2000/svg" xmlns:xlink="http://www.w3.org/1999/xlink" x="0px" y="0px"
	 viewBox="0 0 200 200" style="enable-background:new 0 0 200 200;" xml:space="preserve">
<style type="text/css">
	.st0{fill:#9FA0A1;}
</style>
<path id="LOGO_3_" class="st0" d="M163.7,36.4C146.7,19.4,124,10,100,10s-46.7,9.4-63.6,26.4C19.4,53.4,10,76,10,100
	s9.4,46.6,26.4,63.6S76,190,100,190s46.6-9.4,63.6-26.4S190,124,190,100S180.6,53.4,163.7,36.4z M74.2,125.8l20.3-47.9
	c1.4-3.2,4-3.7,5.5-3.7s4.2,0.5,5.5,3.7l20.3,47.9H74.2z M153.5,152.5L119.3,72c-3.6-8.5-11.5-12.8-19.3-12.8S84.3,63.5,80.7,72
	l-34.2,80.5C33.2,139,25,120.5,25,100c0-41.4,33.6-75,75-75s75,33.6,75,75C175,120.5,166.8,139,153.5,152.5z"/>
</svg>
